<?xml version="1.0" encoding="utf-8"?>
<!-- Generator: Adobe Illustrator 21.0.0, SVG Export Plug-In . SVG Version: 6.00 Build 0)  -->
<svg version="1.1" id="Layer_1" xmlns="http://www.w3.org/2000/svg" xmlns:xlink="http://www.w3.org/1999/xlink" x="0px" y="0px"
	 viewBox="0 0 399 396" style="enable-background:new 0 0 399 396;" xml:space="preserve">
<style type="text/css">
	.st0{opacity:0.54;fill:#1E88E5;}
	.st1{fill:#E2CCBF;}
	.st2{fill:#EAE9E5;}
	.st3{fill:#F7F6F1;}
	.st4{fill:#F2E0D6;}
	.st5{fill:#E2D1C9;}
	.st6{fill:#847B72;}
	.st7{fill:#54473E;}
	.st8{fill:#B71C1C;}
	.st9{fill:#991919;}
	.st10{fill:#FF5252;}
	.st11{fill:#EF3C3C;}
	.st12{fill:#64B5F6;}
	.st13{fill:#90CAF9;}
	.st14{opacity:0.5;fill:#2196F3;}
	.st15{fill:#F2E0D7;}
</style>
<circle class="st0" cx="200" cy="197.9" r="190.6"/>
<path class="st1" d="M109.4,72.6l181.2-0.2L274,63.7c-0.6-0.3-1.4-0.5-2.1-0.5H128.6c-0.7,0-1.4,0.2-2.1,0.5L109.4,72.6z"/>
<path class="st2" d="M288.6,71.8h-177c-2.1,0-3.8,1.7-3.8,3.8v100h184.6v-100C292.4,73.5,290.7,71.8,288.6,71.8z"/>
<path class="st3" d="M279.5,150.2h-159c-1.8,0-3.3-1.5-3.3-3.3V82.2c0-1.8,1.5-3.3,3.3-3.3h159c1.8,0,3.3,1.5,3.3,3.3v64.6
	C282.8,148.7,281.3,150.2,279.5,150.2z"/>
<path class="st2" d="M288.8,332.4H111.3c-2,0-3.6-1.6-3.6-3.6v-55.5h184.6v55.5C292.4,330.8,290.8,332.4,288.8,332.4z"/>
<path class="st4" d="M228.5,118.9h-56.6c-2.6,0-4.7-2.1-4.7-4.7V111c0-2.6,2.1-4.7,4.7-4.7h56.6c2.6,0,4.7,2.1,4.7,4.7v3.2
	C233.1,116.8,231,118.9,228.5,118.9z"/>
<path class="st5" d="M228.5,297.4h-56.6c-2.6,0-4.7-2.1-4.7-4.7v-3.2c0-2.6,2.1-4.7,4.7-4.7h56.6c2.6,0,4.7,2.1,4.7,4.7v3.2
	C233.1,295.4,231,297.4,228.5,297.4z"/>
<path class="st6" d="M117.2,145.3v11.3l2.6-6.8C117.5,149.4,117.2,147.9,117.2,145.3z"/>
<path class="st6" d="M282.8,144.6l-0.1,12.2l-2.5-6.7C282.4,149.6,282.8,147.3,282.8,144.6z"/>
<polyline class="st1" points="280.1,150.1 274.8,150.2 280.7,175.6 289.8,175.6 280.1,150.1 "/>
<polyline class="st1" points="119.6,150.1 125,150.2 119.1,175.6 110,175.6 119.6,150.1 "/>
<polygon class="st7" points="274.8,150.2 280.7,175.6 119.1,175.6 125,150.2 "/>
<line class="st8" x1="273.7" y1="161" x2="273.7" y2="160.9"/>
<path class="st8" d="M257.4,140.5l-88.3-6.8c-3.6-0.3-6.8,2.1-7,5.2l-5.1,65l35.8,32.6l68,5.2c3.6,0.3,6.8-2.1,7-5.2l5.9-75.5"/>
<path class="st9" d="M259.6,159.5l14,1.4l-16.2-20.3L256,155C255.7,157.2,257.4,159.2,259.6,159.5z"/>
<path class="st10" d="M251.8,146l18.4,18.3L270,241c0,3.2-3,5.7-6.6,5.7l-68.2-0.1l-38.1-29.8l0.2-65.2c0-3.2,3-5.7,6.6-5.7
	L251.8,146z"/>
<path class="st11" d="M255.9,164.4h14.3l-18.4-18.4v14.3C251.8,162.5,253.6,164.4,255.9,164.4z"/>
<g>
	<g>
		<g>
			<g>
				<path class="st10" d="M209,158l11.5,51l-30.7,37.4l-66.5,15c-3.5,0.8-7-1.1-7.7-4.2l-19.7-87c-0.7-3.1,1.6-6.2,5.2-7l86-19.3"/>
			</g>
		</g>
	</g>
	<path class="st11" d="M195.2,161.1L209,158l-21.8-14.1l3.2,14.1C190.8,160.2,193,161.6,195.2,161.1z"/>
</g>
<g>
	<g>
		<path class="st12" d="M53,95.2L21,102.3L19.2,94c-1.3-5.9,2.6-9.9,8.5-11.2l11.5-2.5C45.2,79,49.8,81,51.1,87L53,95.2z"/>
		<path class="st13" d="M19.8,96.6l2.2,9.8l1,4.3l8.6,38.8c1.3,5.9,7.7,10,13.6,8.7l65.8-14.5c5.9-1.3,8.7-7.4,7.4-13.3l-9.5-43.2
			c-1.3-5.9-6.1-9-12-7.6l-45,9.9L19.8,96.6z"/>
	</g>
	<polygon class="st14" points="52.4,138.2 99.1,128.1 77.4,106.8 70.2,124 63,119.2 	"/>
	<path class="st14" d="M49.7,104.9c-3,0.6-4.8,3.5-4.2,6.5c0.6,3,3.6,4.9,6.5,4.2c3-0.6,4.8-3.6,4.2-6.5
		C55.6,106.2,52.6,104.3,49.7,104.9z"/>
</g>
<g>
	<g>
		<g>
			<path class="st12" d="M325.3,33.8l-32-6.9l1.8-8.3c1.3-5.9,6.5-7.9,12.4-6.6l11.5,2.5c5.9,1.3,9.3,5.1,8.1,11L325.3,33.8z"/>
			<path class="st13" d="M294.5,21.2l-2.1,9.8l-0.9,4.3L283,74.3c-1.3,5.9,2.8,12.3,8.8,13.6l65.8,14.3c5.9,1.3,11-3.1,12.3-9
				l9.4-43.2c1.3-5.9-1.8-10.7-7.7-12l-45-9.8L294.5,21.2z"/>
		</g>
	</g>
	<path id="audio-7-icon_1_" class="st14" d="M348,50.1l-24.6,0.2l-3.6,17.8c-4.5-1.8-10.1,1.3-9.5,5.5c0.8,5.5,11.3,6,12.7-0.9
		c0.6-2.8,2.8-14.1,2.8-14.1l16.4-0.2L340,69.7c-4.5-1.8-10.1,1.3-9.5,5.5c0.8,5.5,11.3,6,12.7-0.9C343.7,71.8,348,50.1,348,50.1z"
		/>
</g>
<g>
	<g>
		<g>
			<g>
				<path class="st8" d="M227.2,171.3l6.3,52l-34.4,34.1l-67.7,8.1c-3.6,0.4-6.8-1.8-7.2-4.9l-10.7-88.5c-0.4-3.1,2.2-6,5.8-6.5
					L207,155"/>
			</g>
		</g>
	</g>
	<path class="st9" d="M213.2,172.9l14-1.7L207,155l1.7,14.4C208.9,171.6,211,173.2,213.2,172.9z"/>
</g>
<path class="st15" d="M309.5,179.1H90.8c0.3-1.8,1.6-3.1,3-3.1h212.6c1.4,0,2.6,1.2,3,2.9"/>
<path class="st3" d="M308.9,177.8H91.5c-1.7,0-3,1.3-3,3v91.4c0,1.7,1.3,3,3,3h217.4c1.7,0,3-1.3,3-3v-91.4
	C311.9,179.2,310.5,177.8,308.9,177.8z"/>
<path class="st4" d="M245.1,238h-89.9c-2.6,0-4.7-2.1-4.7-4.7v-8.4c0-2.6,2.1-4.7,4.7-4.7h89.9c2.6,0,4.7,2.1,4.7,4.7v8.4
	C249.8,235.9,247.7,238,245.1,238z"/>
</svg>
