<?xml version="1.0" encoding="utf-8"?>
<!-- Generator: Adobe Illustrator 21.0.0, SVG Export Plug-In . SVG Version: 6.00 Build 0)  -->
<svg version="1.1" id="Layer_1" xmlns="http://www.w3.org/2000/svg" xmlns:xlink="http://www.w3.org/1999/xlink" x="0px" y="0px"
	 viewBox="0 0 399 396" style="enable-background:new 0 0 399 396;" xml:space="preserve">
<style type="text/css">
	.st0{opacity:0.54;fill:#1E88E5;}
	.st1{fill:#64B5F6;}
	.st2{fill:#90CAF9;}
	.st3{opacity:0.5;fill:#2196F3;}
	.st4{fill:none;}
	.st5{opacity:0.5;}
	.st6{fill:#2196F3;}
	.st7{fill:#757575;}
	.st8{fill:#FFFFFF;}
	.st9{fill:#C7D3C9;}
	.st10{clip-path:url(#SVGID_2_);}
	.st11{fill:#F7F8FA;}
	.st12{fill:#E2E2E0;}
	.st13{fill:#E0E0E0;}
	.st14{fill:#BDBDBD;}
	.st15{opacity:0.5;fill:none;stroke:#2196F3;stroke-width:1.2;stroke-linecap:round;stroke-linejoin:round;stroke-miterlimit:10;}
	.st16{fill:#B71C1C;}
</style>
<circle class="st0" cx="199.2" cy="197.9" r="190.6"/>
<g>
	<path class="st1" d="M306.9,71.3l-46.2,4.4c-3.2,0.3-5.9-2-6.2-5.2l-3.1-32.6c-0.3-3.2,2-5.9,5.2-6.2l46.2-4.4
		c3.2-0.3,5.9,2,6.2,5.2l3.1,32.6C312.4,68.2,310.1,71,306.9,71.3z"/>
	<path class="st2" d="M307.8,88.7l-45.6-8.8c-3.1-0.6-5.1-3.6-4.5-6.7l6.2-32.2c0.6-3.1,3.6-5.1,6.7-4.5l45.6,8.8
		c3.1,0.6,5.1,3.6,4.5,6.7l-6.2,32.2C313.9,87.2,310.9,89.3,307.8,88.7z"/>
	<polygon class="st3" points="267.9,73 308.3,80.7 298.3,56.6 286.8,67.7 282.7,61.5 	"/>
	<path class="st3" d="M276.9,45.7c-2.6-0.5-5,1.2-5.5,3.7c-0.5,2.6,1.2,5,3.7,5.5c2.6,0.5,5-1.2,5.5-3.8
		C281.2,48.7,279.5,46.2,276.9,45.7z"/>
</g>
<g>
	<g>
		<path class="st4" d="M342.6,140.3"/>
	</g>
	<path class="st2" d="M362.8,165.3l-13.5-16.5l-28.1-4.4c-1.5-0.2-2.9,0.8-3.1,2.3l-9.1,57.5c-0.2,1.5,0.8,2.9,2.3,3.1l41.1,6.5
		c1.5,0.2,2.9-0.8,3.1-2.3L362.8,165.3z"/>
	<path class="st1" d="M362.8,165.3l-13.6-2.2c-1.2-0.2-2-1.3-1.8-2.4l1.9-11.9"/>
	<g class="st5">
		<path class="st6" d="M327.7,177.5c2.5,0.4,4,2.4,3.7,4.8c-0.4,2.4-2.5,3.9-5,3.5l-3.4-0.5l1.3-8.3L327.7,177.5z M324.7,184.2
			l2,0.3c1.6,0.2,3-0.8,3.3-2.5c0.3-1.7-0.8-3.1-2.5-3.4l-2-0.3L324.7,184.2z"/>
		<path class="st6" d="M340.7,183.7c-0.4,2.4-2.6,3.9-5.1,3.6s-4.1-2.5-3.8-4.9c0.4-2.4,2.6-3.9,5.1-3.5S341.1,181.3,340.7,183.7z
			 M333.3,182.6c-0.2,1.7,0.9,3.2,2.6,3.4c1.6,0.2,3.2-0.9,3.4-2.5c0.2-1.7-0.9-3.1-2.5-3.4C335.1,179.8,333.6,180.9,333.3,182.6z"
			/>
		<path class="st6" d="M349.2,182l-1,0.9c-0.5-0.7-1.3-1.3-2.2-1.4c-1.7-0.3-3.2,0.8-3.4,2.5c-0.2,1.6,0.9,3.1,2.5,3.4
			c0.8,0.1,1.7-0.1,2.5-0.6l0.7,1.1c-1,0.7-2.3,1.1-3.4,0.9c-2.4-0.4-4.1-2.5-3.7-4.9c0.4-2.4,2.5-3.9,5-3.5
			C347.4,180.4,348.5,181.1,349.2,182z"/>
	</g>
</g>
<g>
	<path class="st1" d="M64.2,83.2l-25.3,0.1l0-6.5c0-4.7,3.6-7,8.3-7.1l9.1,0c4.7,0,7.9,2.3,7.9,7L64.2,83.2z"/>
	<path class="st2" d="M38.9,78.8l0,7.8l0,3.4l0.1,30.8c0,4.7,4.2,8.8,8.9,8.8l52.1-0.2c4.7,0,7.8-4.1,7.8-8.9l-0.1-34.2
		c0-4.7-3.1-7.8-7.8-7.7l-35.7,0.1L38.9,78.8z"/>
	<path id="audio-7-icon_3_" class="st3" d="M85.8,91.3l-20,2.3l-1.3,14.8c-3.8-1.1-8.1,2-7.3,5.3c1.1,4.4,9.7,3.9,10.2-1.9
		c0.2-2.4,1-11.7,1-11.7l13.3-1.6l-0.8,9.3c-3.8-1.1-8.1,2-7.2,5.3c1.1,4.4,9.7,3.9,10.2-1.9C84.2,109.3,85.8,91.3,85.8,91.3z"/>
</g>
<g>
	<path class="st7" d="M324.9,275h-248V117.7c0-4,3.3-7.3,7.3-7.3h233.4c4,0,7.3,3.3,7.3,7.3V275z"/>
	<rect x="88.8" y="121.3" class="st8" width="224.2" height="142.7"/>
	<circle class="st8" cx="200.9" cy="116.1" r="1.7"/>
	<rect x="177.8" y="275" class="st9" width="46.2" height="4.2"/>
	<g>
		<defs>
			<path id="SVGID_1_" d="M352.7,275c0,5.7-3.6,10.4-8.1,10.4H57.2c-4.5,0-8.1-4.6-8.1-10.4H352.7z"/>
		</defs>
		<clipPath id="SVGID_2_">
			<use xlink:href="#SVGID_1_"  style="overflow:visible;"/>
		</clipPath>
		<g class="st10">
			<rect x="49.1" y="275" class="st11" width="303.6" height="6.9"/>
			<rect x="49.1" y="281.9" class="st12" width="303.6" height="3.5"/>
		</g>
	</g>
</g>
<path class="st13" d="M284.7,212.5H118.9c-3.1,0-5.7-2.5-5.7-5.7v-24.3c0-3.1,2.5-5.7,5.7-5.7h165.9c3.1,0,5.7,2.5,5.7,5.7v24.3
	C290.4,209.9,287.9,212.5,284.7,212.5z"/>
<path class="st14" d="M254.7,212.5h30c3.1,0,5.7-2.5,5.7-5.7v-24.3c0-3.1-2.5-5.7-5.7-5.7h-30V212.5z"/>
<g>
	<path class="st1" d="M269.7,324l-32.8,13c-3.3,1.3-7.1-0.3-8.4-3.6l-13-32.8c-1.3-3.3,0.3-7.1,3.6-8.4l32.8-13
		c3.3-1.3,7.1,0.3,8.4,3.6l13,32.8C274.6,318.9,273,322.7,269.7,324z"/>
	<path class="st2" d="M275,335.3l-34.9,5c-3.6,0.5-6.8-2-7.4-5.5l-5-34.9c-0.5-3.6,2-6.8,5.5-7.4l34.9-5c3.6-0.5,6.8,2,7.4,5.5
		l5,34.9C281,331.5,278.5,334.8,275,335.3z"/>
	<path class="st3" d="M257.3,323.6l-3.7,0.5c-2.9,0.4-5.6-1.6-6-4.5l-2.6-17.8c-0.4-2.9,1.6-5.6,4.5-6l3.7-0.5
		c2.9-0.4,5.6,1.6,6,4.5l2.6,17.8C262.2,320.5,260.2,323.2,257.3,323.6z"/>
	<path class="st15" d="M263.5,308.3l1,6.9c0.8,5.5-3,10.6-8.6,11.4h0c-5.5,0.8-10.6-3-11.4-8.6l-1-6.9"/>
	<polyline class="st15" points="262.5,331.5 250.9,333.1 256.7,332.3 255.9,326.6 	"/>
</g>
<g>
	<path class="st2" d="M91.8,210.2l-17.7-10.5L47.1,205c-1.4,0.3-2.4,1.7-2.1,3.1l10.8,55.2c0.3,1.4,1.7,2.4,3.1,2.1l39.4-7.7
		c1.4-0.3,2.4-1.7,2.1-3.1L91.8,210.2z"/>
	<path class="st1" d="M91.8,210.2l-13.1,2.6c-1.1,0.2-2.2-0.5-2.4-1.6l-2.2-11.4"/>
	<path class="st3" d="M64.9,231c2.1-0.4,3.4,0.4,3.8,2.2c0.4,1.9-0.6,3.2-2.7,3.6l-1.9,0.4l0.5,2.5l-1.4,0.3l-1.6-8.2L64.9,231z
		 M63.9,235.9l1.8-0.4c1.3-0.2,1.9-0.9,1.7-2c-0.2-1.1-1-1.5-2.3-1.2l-1.8,0.4L63.9,235.9z"/>
	<path class="st3" d="M72.9,229.5c2.5-0.5,4.6,0.9,5,3.3c0.5,2.4-1,4.5-3.5,4.9l-3.3,0.7l-1.6-8.2L72.9,229.5z M72.3,236.8l2-0.4
		c1.6-0.3,2.6-1.7,2.3-3.4c-0.3-1.7-1.8-2.6-3.4-2.3l-2,0.4L72.3,236.8z"/>
	<path class="st3" d="M80.2,229.3l0.5,2.4l3.7-0.7l0.2,1.2l-3.7,0.7l0.7,3.4l-1.4,0.3l-1.6-8.2l5.5-1.1l0.2,1.2L80.2,229.3z"/>
</g>
<g>
	<g>
		<path class="st16" d="M134.7,192.2c-2.2,20.4,12.6,38.9,33.1,41.1c8.2,0.9,17.6-2.1,24.2-5.9l15.8,19.7c2.6,3.2,5.7,4.8,8.9,2.3
			c1.6-1.3,3.4-2.9,3.6-4.7c0.2-1.9-1.2-4.1-2.5-5.7l-16.2-20.2c3.9-5.2,6.5-11.5,7.3-18.4c2.2-20.4-12.6-38.9-33.1-41.1
			C155.3,156.9,136.9,171.7,134.7,192.2z M198.7,199.1c-1.6,14.9-15,25.7-29.9,24.1c-14.9-1.6-25.7-15-24.1-29.9
			c1.6-14.9,15-25.7,29.9-24.1C189.6,170.8,200.3,184.2,198.7,199.1z"/>
	</g>
</g>
</svg>
