<?xml version="1.0" encoding="utf-8"?>
<!-- Generator: Adobe Illustrator 21.0.0, SVG Export Plug-In . SVG Version: 6.00 Build 0)  -->
<svg version="1.1" id="Layer_1" xmlns="http://www.w3.org/2000/svg" xmlns:xlink="http://www.w3.org/1999/xlink" x="0px" y="0px"
	 viewBox="0 0 399 396" style="enable-background:new 0 0 399 396;" xml:space="preserve">
<style type="text/css">
	.st0{opacity:0.54;fill:#1E88E5;}
	.st1{fill:#757575;}
	.st2{fill:#FFFFFF;}
	.st3{fill:#C7D3C9;}
	.st4{fill:#EBBB95;}
	.st5{fill:#EEB98D;}
	.st6{fill:#BDBDBD;}
	.st7{fill:#E0E0E0;}
	
		.st8{fill:none;stroke:#B71C1C;stroke-width:2;stroke-linecap:round;stroke-linejoin:round;stroke-miterlimit:10;stroke-dasharray:9.5,10;}
	.st9{fill:none;}
	.st10{fill:#90CAF9;}
	.st11{fill:#64B5F6;}
	.st12{fill:#2196F3;}
</style>
<circle class="st0" cx="202.1" cy="196.9" r="190.6"/>
<g>
	<path class="st1" d="M180.5,82.5l54.4-54.4c3.1-3.1,8-3.1,11.1,0l110.4,110.4c3.1,3.1,3.1,8,0,11.1L302,204c-3.1,3.1-8,3.1-11.1,0
		L180.5,93.6C177.5,90.5,177.5,85.6,180.5,82.5z"/>
	
		<rect x="230.1" y="50.5" transform="matrix(-0.7071 0.7071 -0.7071 -0.7071 542.5452 9.2437)" class="st2" width="78.4" height="133"/>
	<ellipse transform="matrix(0.7071 -0.7071 0.7071 0.7071 18.4748 170.8837)" class="st2" cx="215.5" cy="63.1" rx="3" ry="3"/>
	<path class="st3" d="M307.4,183.1l28.1-28.1c0.6-0.6,1.5-0.6,2,0l0.4,0.4c0.6,0.6,0.6,1.5,0,2l-28.1,28.1c-0.6,0.6-1.5,0.6-2,0
		l-0.4-0.4C306.8,184.6,306.8,183.7,307.4,183.1z"/>
	<path class="st4" d="M227.3,125.8c-13.5-0.9-18,25.2-5.3,27C235.3,154,237.8,126.3,227.3,125.8z"/>
	<path class="st4" d="M212.4,111.3c-13.5-0.9-18.2,25.9-5.4,27.6C220.1,140.2,222.9,111.8,212.4,111.3z"/>
	<path class="st4" d="M195.8,103.4c-11.7-0.8-16.5,23-5.4,24.5C203.6,129.2,206.3,103.9,195.8,103.4z"/>
	<path class="st4" d="M253.3,166.4l-17.1-17.1c-5.9,18.2-9.6,31.5-0.1,35.4C247.9,188.2,253.6,166.7,253.3,166.4z"/>
	<path class="st5" d="M199.9-28.5L264.6-45l-1.3,26.1c-1.5,23.9,19.9,40,26.3,47.2c11.5,10.4,6.5,39.4,7,51.2
		c0.7,12.4-25.7,12.1-38.3,13c-1.4,0.1-2.7-0.6-3.3-1.9c-5.7-12.1,16.1-19,22.1-18.7c0.3,0,0.7-0.5,0.6-0.7
		c-2-4.3-3.5-10.7-4.4-15.8l-27.2-27.2c-3-3-8.5-3-11.5,0l-47.3,47.3c-0.2-31.5,0.6-45.7,15.2-60c0.4-0.4,0.7-0.9,0.7-1.5
		L199.9-28.5"/>
</g>
<g>
	<path class="st1" d="M137.9,341.2l-63.2-29.4c-3.9-1.8-5.6-6.5-3.8-10.4l60.2-129.4c1.8-3.9,6.5-5.6,10.4-3.8l63.2,29.4
		c3.9,1.8,5.6,6.5,3.8,10.4l-60.2,129.4C146.5,341.3,141.8,343,137.9,341.2z"/>
	
		<rect x="104.1" y="192.3" transform="matrix(0.9066 0.422 -0.422 0.9066 120.1096 -35.5028)" class="st2" width="72.3" height="122.6"/>
	
		<ellipse transform="matrix(0.422 -0.9066 0.9066 0.422 -223.6535 283.6308)" class="st2" cx="110.6" cy="317.2" rx="2.8" ry="2.8"/>
	<path class="st3" d="M185.4,199.7l-33-15.4c-0.7-0.3-1-1.2-0.7-1.9l0.1-0.3c0.3-0.7,1.2-1,1.9-0.7l33,15.4c0.7,0.3,1,1.2,0.7,1.9
		l-0.1,0.3C187,199.7,186.2,200,185.4,199.7z"/>
	<path class="st4" d="M161.1,287.2c3.5,12,27.5,7.6,25-4C183.1,271.4,158.3,277.9,161.1,287.2z"/>
	<path class="st4" d="M153.3,304.7c3.5,12,28.2,7.6,25.7-4C176,288.9,150.5,295.5,153.3,304.7z"/>
	<path class="st4" d="M151.7,321.6c3,10.3,25.1,7,23-3.1C171.6,306.7,148.8,312.3,151.7,321.6z"/>
	<path class="st4" d="M188.1,251.8l-9.4,20.3c17.6-0.6,30.3-1.6,30.7-11.1C208.7,249.6,188.3,251.5,188.1,251.8z"/>
	<path class="st5" d="M-22.3,389.4l-0.1-73l46.9-14.7c21.2-6.2,28.4-29.9,32.6-37.7c5.4-13.2,32-18,42.2-22.2
		c10.6-4.6,18.6,18.4,23.4,29.1c0.5,1.2,0.3,2.5-0.6,3.4c-8.6,8.8-21.5-7.9-23.1-13.2c-0.1-0.3-0.6-0.5-0.8-0.3
		c-3.1,3.1-8.2,6.4-12.3,8.8l-14.9,32.1c-1.6,3.5,0.1,8.3,3.6,9.9l55.9,26c-27.3,10.1-39.7,13.9-56.7,5.8c-0.5-0.2-1-0.4-1.5-0.1
		L-22.3,389.4"/>
</g>
<g>
	<path class="st6" d="M139.5,241.6l-15.8-7.3l1.9-4.1c1.4-2.9,4.3-3.4,7.2-2l5.7,2.6c2.9,1.4,4.3,3.7,2.9,6.7L139.5,241.6z"/>
	<path class="st7" d="M125,231.5l-2.2,4.9l-1,2.1l-8.9,19.2c-1.4,2.9,0,6.7,3,8.1l32.6,15c2.9,1.4,6.1-0.3,7.4-3.3l9.9-21.4
		c1.4-2.9,0.3-5.8-2.6-7.1l-22.3-10.3L125,231.5z"/>
</g>
<g>
	<path class="st6" d="M283.9,123.2l12.1-12.1l3.1,3.1c2.2,2.2,1.6,5.1-0.6,7.3l-4.4,4.3c-2.3,2.2-4.9,2.7-7.1,0.4L283.9,123.2z"/>
	<path class="st7" d="M298.2,113.3l-3.7-3.7l-1.6-1.6l-14.7-14.7c-2.2-2.2-6.2-2.2-8.4,0l-24.9,24.9c-2.2,2.2-1.8,5.7,0.5,8
		l16.3,16.4c2.2,2.2,5.2,2.2,7.5,0l17.1-17L298.2,113.3z"/>
</g>
<path class="st5" d="M-22.3,389.4l-0.1-73l46.9-14.7c21.2-6.2,28.4-29.9,32.6-37.7c5.4-13.2,32-18,42.2-22.2
	c10.6-4.6,18.6,18.4,23.4,29.1c0.5,1.2,0.3,2.5-0.6,3.4c-8.6,8.8-21.5-7.9-23.1-13.2c-0.1-0.3-0.6-0.5-0.8-0.3
	c-3.1,3.1-8.2,6.4-12.3,8.8l-14.9,32.1c-1.6,3.5,0.1,8.3,3.6,9.9l55.9,26c-27.3,10.1-39.7,13.9-56.7,5.8c-0.5-0.2-1-0.4-1.5-0.1
	L-22.3,389.4"/>
<path class="st5" d="M199.9-28.5l62.7-7.2l0.7,16.8c-1.5,23.9,19.9,40,26.3,47.2c11.5,10.4,6.5,39.4,7,51.2
	c0.7,12.4-25.7,12.1-38.3,13c-1.4,0.1-2.7-0.6-3.3-1.9c-5.7-12.1,16.1-19,22.1-18.7c0.3,0,0.7-0.5,0.6-0.7c-2-4.3-3.5-10.7-4.4-15.8
	l-27.2-27.2c-3-3-8.5-3-11.5,0l-47.3,47.3c-0.2-31.5,0.6-45.7,15.2-60c0.4-0.4,0.7-0.9,0.7-1.5L199.9-28.5"/>
<path class="st8" d="M272.7,276.5c1.4-15.5,31.9-90.3,64.7-62.7c22.8,19.2-4.7,54.9-28.7,37.3c-22.8-16.7-33.1-56.4-22.4-83.3"/>
<g>
	<g>
		<path class="st9" d="M258.7,254.4"/>
	</g>
	<path class="st10" d="M284.9,270.2l-17.5-10.3l-26.5,5.3c-1.4,0.3-2.3,1.7-2,3.1l10.8,54.3c0.3,1.4,1.7,2.3,3.1,2l38.8-7.7
		c1.4-0.3,2.3-1.7,2-3.1L284.9,270.2z"/>
	<path class="st11" d="M284.9,270.2l-12.9,2.6c-1.1,0.2-2.2-0.5-2.4-1.6l-2.2-11.3"/>
	<g>
		<path class="st12" d="M257.6,292.5c2.4-0.5,4.4,0.8,4.9,3.1c0.5,2.3-0.9,4.3-3.3,4.8L256,301l-1.6-7.8L257.6,292.5z M257.1,299.6
			l1.9-0.4c1.5-0.3,2.5-1.7,2.1-3.3c-0.3-1.6-1.8-2.5-3.3-2.2l-1.9,0.4L257.1,299.6z"/>
		<path class="st12" d="M271.3,293.8c0.5,2.2-1,4.4-3.3,4.8c-2.3,0.5-4.5-0.9-5-3.1c-0.5-2.3,1-4.3,3.3-4.8
			C268.6,290.2,270.8,291.6,271.3,293.8z M264.3,295.2c0.3,1.6,1.9,2.5,3.4,2.2c1.5-0.3,2.5-1.8,2.2-3.4c-0.3-1.6-1.8-2.5-3.4-2.2
			C265,292.2,264,293.7,264.3,295.2z"/>
		<path class="st12" d="M278.2,289.5l-0.6,1.1c-0.7-0.5-1.6-0.7-2.4-0.5c-1.6,0.3-2.6,1.8-2.2,3.3c0.3,1.5,1.8,2.5,3.4,2.2
			c0.8-0.2,1.5-0.7,2-1.4l1,0.7c-0.6,0.9-1.7,1.7-2.8,1.9c-2.3,0.5-4.4-0.9-4.9-3.1c-0.5-2.2,1-4.3,3.3-4.8
			C276.1,288.7,277.3,288.9,278.2,289.5z"/>
	</g>
</g>
<path class="st8" d="M144.4,201.6c-17.9,0-59.1-19-44.4-36c2.8-3.3,7.5-5.8,11.1-3.7c7.1,4,10.5,12.7,3.8,19.7
	c-3,3.2-7.4,4.9-11.9,4.9c-31.2-0.3-29.8-76.1-56.1-76.1"/>
<g>
	<path class="st10" d="M63.6,64.1L46.1,53.7l-26.6,5.2c-1.4,0.3-2.3,1.6-2.1,3.1l10.6,54.4c0.3,1.4,1.6,2.3,3.1,2.1l38.9-7.6
		c1.4-0.3,2.3-1.6,2.1-3.1L63.6,64.1z"/>
	<path class="st11" d="M63.6,64.1l-12.9,2.5c-1.1,0.2-2.2-0.5-2.4-1.6l-2.2-11.3"/>
	<g>
		<path class="st12" d="M36.9,86.4c2-0.4,3.3,0.3,3.7,2.1c0.4,1.8-0.6,3.1-2.6,3.5l-1.8,0.4l0.5,2.4L35.3,95l-1.6-7.9L36.9,86.4z
			 M35.9,91.1l1.8-0.4c1.2-0.2,1.8-0.9,1.6-2c-0.2-1-1-1.4-2.2-1.2L35.3,88L35.9,91.1z"/>
		<path class="st12" d="M44.6,84.9c2.4-0.5,4.4,0.8,4.9,3.1c0.5,2.3-0.9,4.3-3.3,4.8L43,93.4l-1.6-7.9L44.6,84.9z M44,92l1.9-0.4
			c1.5-0.3,2.5-1.7,2.2-3.3c-0.3-1.6-1.8-2.5-3.3-2.2l-1.9,0.4L44,92z"/>
		<path class="st12" d="M51.7,84.7l0.5,2.3l3.6-0.7l0.2,1.2l-3.6,0.7l0.7,3.2l-1.3,0.3l-1.6-7.9l5.3-1.1l0.2,1.2L51.7,84.7z"/>
	</g>
</g>
</svg>
