<svg xmlns="http://www.w3.org/2000/svg" viewBox="0 0 800 707"><path d="M176.5 190.3H61.2c-15.5 0-28.1-12.6-28.1-28.1s12.6-28.1 28.1-28.1h115.2c15.5 0 28.1 12.6 28.1 28.1s-12.6 28.1-28 28.1zM61.2 146.2c-8.9 0-16.1 7.2-16.1 16.1s7.2 16.1 16.1 16.1h115.2c8.9 0 16.1-7.2 16.1-16.1s-7.2-16.1-16.1-16.1H61.2z"/><path d="M45.4 159.5l-11.8-2.1L51 60.1c2.1-11.9 12.5-20.6 24.6-20.6h86.2c12.1 0 22.5 8.6 24.7 20.6l17.7 96.5-11.8 2.2-17.7-96.5c-1.1-6.2-6.5-10.7-12.8-10.7H75.5c-6.3 0-11.6 4.5-12.8 10.7l-17.3 97.2z"/><circle cx="173" cy="164.3" r="7.1"/><path d="M746.8 427H622.6c-11.3 0-20.4-9.2-20.4-20.4V300c0-11.3 9.2-20.4 20.4-20.4h27.5c11.1 0 20.2 9 20.4 20h76.4c11.3 0 20.4 9.2 20.4 20.4v86.6c0 11.2-9.2 20.4-20.5 20.4zM622.6 291.6c-4.6 0-8.4 3.8-8.4 8.4v106.6c0 4.6 3.8 8.4 8.4 8.4h124.3c4.6 0 8.4-3.8 8.4-8.4V320c0-4.6-3.8-8.4-8.4-8.4h-88.4V300c0-4.6-3.8-8.4-8.4-8.4h-27.5z"/><path d="M715.8 357.1c-.8 0-1.5-.3-2.1-.9-1.2-1.2-1.2-3.1 0-4.2l23.8-23.8c1.2-1.2 3.1-1.2 4.2 0s1.2 3.1 0 4.2l-23.8 23.8c-.6.6-1.3.9-2.1.9z"/><path d="M742.4 356.9l-5.1-.2.9-25.1-25.1.9-.2-5.1 30.6-1.1zM651.8 373.1c.8 0 1.5.3 2.1.9 1.2 1.2 1.2 3.1 0 4.2L630 402.1c-1.2 1.2-3.1 1.2-4.2 0s-1.2-3.1 0-4.2l23.8-23.8c.6-.7 1.4-1 2.2-1z"/><path d="M625.1 373.2l5.1.2-.9 25.1 25.1-.9.2 5.1-30.6 1.1zM402.6 434.6c-44.8 0-81.3-36.5-81.3-81.3s36.5-81.3 81.3-81.3 81.3 36.5 81.3 81.3-36.5 81.3-81.3 81.3zm0-150.6c-38.2 0-69.3 31.1-69.3 69.3s31.1 69.3 69.3 69.3c38.2 0 69.3-31.1 69.3-69.3S440.8 284 402.6 284z"/><path d="M442.9 356.3h-43.3v-50.5c0-1.7 1.3-3 3-3s3 1.3 3 3v44.5h37.3c1.7 0 3 1.3 3 3s-1.4 3-3 3z"/><g><path d="M198.7 545.9c-1.4-17.5-24.4-23.2-33.8-8.3-6.1-3.5-13.9.6-14.4 7.7-6.7.8-11.9 6.5-11.9 13.4 0 7.5 6.1 13.5 13.5 13.5h42.4c7.5 0 13.5-6.1 13.5-13.5.1-5.9-3.8-11-9.3-12.8z"/><path d="M180.7 584.4v61.1c0 4.6-3.8 8.4-8.4 8.4H48c-4.6 0-8.4-3.8-8.4-8.4V538.8c0-4.6 3.8-8.4 8.4-8.4h27.5c4.6 0 8.4 3.8 8.4 8.4v11.6h44.2c1.7-4.8 4.7-9 8.8-12h-41c-.2-11.1-9.3-20-20.4-20H48c-11.3 0-20.4 9.2-20.4 20.4v106.6c0 11.3 9.2 20.4 20.4 20.4h124.3c11.3 0 20.4-9.2 20.4-20.4v-61.1h-12z"/><path d="M192.7 572.4v-13.5c0-11.3-9.2-20.4-20.4-20.4h-18c-2.1 1.6-3.5 4-3.7 6.9-3.6.4-6.8 2.3-8.9 5.1h30.7c4.6 0 8.4 3.8 8.4 8.4v13.5h11.9z"/></g><g><path d="M181 427.3H56.7c-11.3 0-20.4-9.2-20.4-20.4V300.2c0-11.3 9.2-20.4 20.4-20.4h27.5c11.1 0 20.2 9 20.4 20H181c11.3 0 20.4 9.2 20.4 20.4v86.6c0 11.3-9.2 20.5-20.4 20.5zM56.7 291.8c-4.6 0-8.4 3.8-8.4 8.4v106.6c0 4.6 3.8 8.4 8.4 8.4H181c4.6 0 8.4-3.8 8.4-8.4v-86.6c0-4.6-3.8-8.4-8.4-8.4H92.6v-11.6c0-4.6-3.8-8.4-8.4-8.4H56.7z"/><path d="M72.7 390.8l-4.3-4.2 39.7-39.7 22.9 22.9 30.1-30.2 4.3 4.2-34.4 34.4-22.9-22.8z"/><path d="M166.1 368.4l-5.1-.2.9-25.1-25.2.9-.1-5.1 30.6-1.1z"/></g><g><path d="M760.9 537.8v-10.9h-8.2v2.7l-9-9-30.3 30.2h6.3v24.3h17.4v-13.2h13.1v13.2h17.4v-24.3h6.3z"/><path d="M758.7 575.1v-15.5c0-11.3-9.2-20.4-20.4-20.4H725l-11.5 11.5h6.2v.5h18.6c4.6 0 8.4 3.8 8.4 8.4v2.3h3.6v13.2h8.4z"/><path d="M750.2 587.1h-3.5v59.1c0 4.6-3.8 8.4-8.4 8.4H614c-4.6 0-8.4-3.8-8.4-8.4V539.6c0-4.6 3.8-8.4 8.4-8.4h27.5c4.6 0 8.4 3.8 8.4 8.4v11.6H696l9-9 3-3h-46.1c-.2-11.1-9.3-20-20.4-20H614c-11.3 0-20.4 9.2-20.4 20.4v106.6c0 11.3 9.2 20.4 20.4 20.4h124.3c11.3 0 20.4-9.2 20.4-20.4v-59.1h-8.5z"/></g><g><path d="M746.8 188.6H622.6c-11.3 0-20.4-9.2-20.4-20.4V61.6c0-11.3 9.2-20.4 20.4-20.4h27.5c11.1 0 20.2 9 20.4 20h76.4c11.3 0 20.4 9.2 20.4 20.4v12.8h-12V81.6c0-4.6-3.8-8.4-8.4-8.4h-88.4V61.6c0-4.6-3.8-8.4-8.4-8.4h-27.5c-4.6 0-8.4 3.8-8.4 8.4v106.6c0 4.6 3.8 8.4 8.4 8.4h124.3c4.6 0 8.4-3.8 8.4-8.4v-13.1h12v13.1c0 11.3-9.2 20.4-20.5 20.4z"/><path d="M763.6 129.1h-54.7c-1.7 0-3-1.3-3-3s1.3-3 3-3h54.7c1.7 0 3 1.3 3 3s-1.4 3-3 3z"/><path d="M725.8 105.3l3.4 3.7-18.4 17.1 18.4 17.1-3.4 3.8-22.5-20.9z"/></g><g><path d="M463.2 42.5l8.8 17.8 19.6 2.9L477.4 77l3.3 19.5-17.5-9.2-17.6 9.2L449 77l-14.2-13.8 19.6-2.9z"/><path d="M463.2 42.5l8.8 17.8 19.6 2.9L477.4 77l3.4 19.5-17.5-9.2-17.5 9.2L449 77l-14.2-13.8 19.6-2.9 8.8-17.8"/><path d="M475.1 107.1l-5.3-2.8v63.8c0 4.6-3.8 8.4-8.4 8.4H337.2c-4.6 0-8.4-3.8-8.4-8.4V61.6c0-4.6 3.8-8.4 8.4-8.4h27.5c4.6 0 8.4 3.8 8.4 8.4v11.6H428l-1.5-1.5-10.8-10.5h-30.5c-.2-11.1-9.3-20-20.4-20h-27.5c-11.3 0-20.4 9.2-20.4 20.4v106.6c0 11.3 9.2 20.4 20.4 20.4h124.3c11.3 0 20.4-9.2 20.4-20.4v-57.5l-6.9-3.6z"/></g><g><path d="M476.8 528.9H446c-.4-4.6-4.2-8.2-8.9-8.2h-11.3c-4.9 0-8.9 4-8.9 8.9V548h6v-18.4c0-1.6 1.3-2.9 2.9-2.9H437c1.6 0 2.9 1.3 2.9 2.9v5.3h36.8c1.6 0 2.9 1.3 2.9 2.9v35.5c0 1.6-1.3 2.9-2.9 2.9h-10.6v6h10.6c4.9 0 8.9-4 8.9-8.9v-35.5c.1-4.9-3.9-8.9-8.8-8.9zM430.1 664.6h-94.7c-9.4 0-17-7.6-17-17v-81.2c0-9.4 7.6-17 17-17h20.9c8.8 0 16 6.7 16.9 15.3H430c9.4 0 17 7.6 17 17v66c.1 9.3-7.5 16.9-16.9 16.9zm-94.7-103.1c-2.7 0-5 2.2-5 5v81.2c0 2.7 2.2 5 5 5h94.7c2.7 0 5-2.2 5-5v-66c0-2.7-2.2-5-5-5h-68.8v-10.3c0-2.7-2.2-5-5-5h-20.9z"/><path d="M458 545h-43.4v-.2c0-6.1-5-11.1-11.1-11.1H388c-6.1 0-11.1 5-11.1 11.1v19.8h6v-19.8c0-2.8 2.3-5.1 5.1-5.1h15.5c2.8 0 5.1 2.3 5.1 5.1v6.2H458c2.8 0 5.1 2.3 5.1 5.1v48.8c0 2.8-2.3 5.1-5.1 5.1h-11.4v6H458c6.1 0 11.1-5 11.1-11.1v-48.8c0-6.1-5-11.1-11.1-11.1z"/></g></svg>