<svg width="36" height="28" viewBox="0 0 36 28" xmlns="http://www.w3.org/2000/svg"><title>folder</title><desc>Created for Kazoup</desc><defs><linearGradient x1="50%" y1="100%" x2="50%" y2="0%" id="a"><stop stop-color="#E6E6E6" offset="0%"/><stop stop-color="#E8E8E8" offset="63.31%"/><stop stop-color="#F0F0F0" offset="94.87%"/><stop stop-color="#F2F2F2" offset="100%"/></linearGradient><linearGradient x1="50%" y1="100%" x2="50%" y2="0%" id="b"><stop stop-color="#CCC" offset="0%"/><stop stop-color="#CECECE" offset="42.72%"/><stop stop-color="#D6D6D6" offset="64.03%"/><stop stop-color="#E3E3E3" offset="80.61%"/><stop stop-color="#F6F6F6" offset="94.66%"/><stop stop-color="#FFF" offset="100%"/></linearGradient></defs><g fill="none" fill-rule="evenodd"><path d="M17.53 2.125V.862A.862.862 0 0 0 16.673 0H3.844a.862.862 0 0 0-.857.862v1.263H1.63c-.298 0-.806.388-.814.862l.057 24.151a.845.845 0 0 0 .843.862h32.75a.847.847 0 0 0 .847-.86l-.129-24.153a.875.875 0 0 0-.868-.862H17.53z" fill="#1EB3DA"/><path d="M33.45 27.629H2.55L2.465 3.167h31.07L33.45 27.63z" fill="url(#a)"/><path d="M33.45 27.629H2.55l-.6-23.342h32.1l-.6 23.342z" fill="url(#b)"/><path d="M35.272 27.14a.878.878 0 0 1-.872.86H1.65c-.472 0-.914-.446-.923-.92L0 6.376a.844.844 0 0 1 .842-.861h34.315c.472 0 .85.388.843.861l-.728 20.766z" fill="#1EB3DA"/></g></svg>