<svg xmlns="http://www.w3.org/2000/svg" viewBox="0 0 200 200"><path d="M177.2 44.9V34h-8.3v2.7l-9-9-30.2 30.2h6.3v24.3h17.4V69h13.1v13.2h17.4V57.9h6.3z"/><path d="M174.9 82.2V66.7c0-11.3-9.2-20.4-20.4-20.4h-13.3l-11.5 11.5h6.2v.5h18.6c4.6 0 8.4 3.8 8.4 8.4V69h3.6v13.2h8.4z"/><path d="M166.5 94.2H163v59.1c0 4.6-3.8 8.4-8.4 8.4H30.3c-4.6 0-8.4-3.8-8.4-8.4V46.7c0-4.6 3.8-8.4 8.4-8.4h27.5c4.6 0 8.4 3.8 8.4 8.4v11.6h46.1l9-9 3-3H78.2c-.2-11.1-9.3-20-20.4-20H30.3C19 26.3 9.8 35.4 9.8 46.7v106.6c0 11.3 9.2 20.4 20.4 20.4h124.3c11.3 0 20.4-9.2 20.4-20.4V94.2h-8.4z"/></svg>