<svg xmlns="http://www.w3.org/2000/svg" viewBox="-539 301 200 200"><path d="M-343.1 440l-20.2-19.4c4.3-5.9 6.9-13.2 6.9-21.1 0-19.8-16.1-35.8-35.8-35.8-19.8 0-35.8 16.1-35.8 35.8 0 19.8 16.1 35.8 35.8 35.8 8.4 0 16.1-2.9 22.2-7.8l20.2 19.4c.9.9 2.1 1.3 3.3 1.3 1.3 0 2.5-.5 3.5-1.5 1.9-1.8 1.8-4.8-.1-6.7zm-49.2-14.3c-14.4 0-26.2-11.7-26.2-26.2 0-14.4 11.7-26.2 26.2-26.2 14.4 0 26.2 11.7 26.2 26.2 0 14.4-11.8 26.2-26.2 26.2z"/><path d="M-430.2 424.6h-72.5c-13.8 0-25.1-11.2-25.1-25.1s11.2-25.1 25.1-25.1h72.5c2.1-3.2 4.6-6 7.4-8.6h-79.9c-18.6 0-33.6 15.1-33.6 33.6 0 18.6 15.1 33.6 33.6 33.6h79.9c-2.8-2.4-5.3-5.3-7.4-8.4z"/></svg>