<svg xmlns="http://www.w3.org/2000/svg" viewBox="0 0 200 200"><path d="M159 27.6l8.8 17.8 19.6 2.8-14.2 13.9 3.4 19.5-17.6-9.2-17.5 9.2 3.3-19.5-14.2-13.9 19.6-2.8z"/><path d="M159 27.6l8.8 17.8 19.6 2.9-14.2 13.8 3.4 19.5-17.6-9.2-17.5 9.2 3.4-19.5-14.2-13.8 19.6-2.9 8.7-17.8"/><path d="M171 92.2l-5.3-2.8v63.8c0 4.6-3.8 8.4-8.4 8.4H33c-4.6 0-8.4-3.8-8.4-8.4V46.7c0-4.6 3.8-8.4 8.4-8.4h27.5c4.6 0 8.4 3.8 8.4 8.4v11.6h54.9l-1.5-1.5-10.8-10.5H80.9c-.2-11.1-9.3-20-20.4-20H33c-11.3 0-20.4 9.2-20.4 20.4v106.6c0 11.3 9.2 20.4 20.4 20.4h124.3c11.3 0 20.4-9.2 20.4-20.4V95.8l-6.7-3.6z"/></svg>