<svg xmlns="http://www.w3.org/2000/svg" viewBox="0 0 200 200"><path d="M157.6 175.4H42.4c-15.5 0-28.1-12.6-28.1-28.1s12.6-28.1 28.1-28.1h115.2c15.5 0 28.1 12.6 28.1 28.1s-12.6 28.1-28.1 28.1zM42.4 131.3c-8.9 0-16.1 7.2-16.1 16.1s7.2 16.1 16.1 16.1h115.2c8.9 0 16.1-7.2 16.1-16.1s-7.2-16.1-16.1-16.1H42.4z"/><path d="M26.6 144.5l-11.8-2.1 17.4-97.3c2.1-11.9 12.5-20.6 24.6-20.6H143c12.1 0 22.5 8.6 24.7 20.6l17.7 96.5-11.8 2.2-17.7-96.5c-1.1-6.2-6.5-10.7-12.8-10.7H56.7c-6.3 0-11.6 4.5-12.8 10.7l-17.3 97.2z"/><circle cx="154.2" cy="149.4" r="7.1"/></svg>