<svg xmlns="http://www.w3.org/2000/svg" viewBox="0 0 200 200"><path d="M174.7 36.2h-30.8c-.4-4.6-4.2-8.2-8.9-8.2h-11.3c-4.9 0-8.9 4-8.9 8.9v18.4h6V36.9c0-1.6 1.3-2.9 2.9-2.9H135c1.6 0 2.9 1.3 2.9 2.9v5.3h36.8c1.6 0 2.9 1.3 2.9 2.9v35.5c0 1.6-1.3 2.9-2.9 2.9h-10.6v6h10.6c4.9 0 8.9-4 8.9-8.9V45.1c0-4.9-4-8.9-8.9-8.9zM128 172H33.3c-9.4 0-17-7.6-17-17V73.8c0-9.4 7.6-17 17-17h20.9c8.8 0 16 6.7 16.9 15.3H128c9.4 0 17 7.6 17 17v66c0 9.3-7.6 16.9-17 16.9zM33.3 68.8c-2.7 0-5 2.2-5 5V155c0 2.7 2.2 5 5 5H128c2.7 0 5-2.2 5-5V89c0-2.7-2.2-5-5-5H59.3V73.8c0-2.7-2.2-5-5-5h-21z"/><path d="M155.9 52.3h-43.4v-.2c0-6.1-5-11.1-11.1-11.1H85.9c-6.1 0-11.1 5-11.1 11.1v19.8h6V52.1c0-2.8 2.3-5.1 5.1-5.1h15.5c2.8 0 5.1 2.3 5.1 5.1v6.2h49.4c2.8 0 5.1 2.3 5.1 5.1v48.8c0 2.8-2.3 5.1-5.1 5.1h-11.4v6h11.4c6.1 0 11.1-5 11.1-11.1V63.4c.1-6.1-4.9-11.1-11.1-11.1z"/></svg>