<svg xmlns="http://www.w3.org/2000/svg" viewBox="0 0 200 200"><path d="M162.1 173.7H37.9c-11.3 0-20.4-9.2-20.4-20.4V46.7c0-11.3 9.2-20.4 20.4-20.4h27.5c11.1 0 20.2 9 20.4 20h76.4c11.3 0 20.4 9.2 20.4 20.4v86.6c-.1 11.3-9.2 20.4-20.5 20.4zM37.9 38.3c-4.6 0-8.4 3.8-8.4 8.4v106.6c0 4.6 3.8 8.4 8.4 8.4h124.3c4.6 0 8.4-3.8 8.4-8.4V66.7c0-4.6-3.8-8.4-8.4-8.4H73.8V46.7c0-4.6-3.8-8.4-8.4-8.4H37.9z"/><path d="M131.1 103.8c-.8 0-1.5-.3-2.1-.9-1.2-1.2-1.2-3.1 0-4.2l23.8-23.8c1.2-1.2 3.1-1.2 4.2 0s1.2 3.1 0 4.2l-23.8 23.8c-.6.6-1.3.9-2.1.9z"/><path d="M157.7 103.6l-5.1-.2.9-25.1-25.1.9-.2-5.1 30.6-1.1z"/><g><path d="M67 119.8c.8 0 1.5.3 2.1.9 1.2 1.2 1.2 3.1 0 4.2l-23.8 23.8c-1.2 1.2-3.1 1.2-4.2 0s-1.2-3.1 0-4.2l23.8-23.8c.6-.6 1.4-.9 2.1-.9z"/><path d="M40.4 120l5.1.1-.9 25.2 25.1-1 .2 5.1-30.6 1.2z"/></g></svg>