<?xml version="1.0" encoding="utf-8"?>
<!-- Generator: Adobe Illustrator 19.0.0, SVG Export Plug-In . SVG Version: 6.00 Build 0)  -->
<svg version="1.1" id="Layer_1" xmlns="http://www.w3.org/2000/svg" xmlns:xlink="http://www.w3.org/1999/xlink" x="0px" y="0px"
	 viewBox="0 0 200 200" style="enable-background:new 0 0 200 200;" xml:space="preserve">
<g>
	<path id="XMLID_36_" d="M162.1,173.7H37.9c-11.3,0-20.4-9.2-20.4-20.4V46.7c0-11.3,9.2-20.4,20.4-20.4h27.5c11.1,0,20.2,9,20.4,20
		h76.4c11.3,0,20.4,9.2,20.4,20.4v12.8h-12V66.7c0-4.6-3.8-8.4-8.4-8.4H73.8V46.7c0-4.6-3.8-8.4-8.4-8.4H37.9
		c-4.6,0-8.4,3.8-8.4,8.4v106.6c0,4.6,3.8,8.4,8.4,8.4h124.3c4.6,0,8.4-3.8,8.4-8.4v-13.1h12v13.1
		C182.5,164.6,173.4,173.7,162.1,173.7z"/>
	<g>
		<path id="XMLID_35_" d="M178.9,114.2h-54.7c-1.7,0-3-1.3-3-3s1.3-3,3-3h54.7c1.7,0,3,1.3,3,3S180.5,114.2,178.9,114.2z"/>
		<g>
			<polygon id="XMLID_37_" points="141.1,90.3 144.5,94.1 126.1,111.2 144.5,128.3 141.1,132.1 118.6,111.2 			"/>
		</g>
	</g>
</g>
</svg>
