<?xml version="1.0" encoding="utf-8"?>
<!-- Generator: Adobe Illustrator 19.0.0, SVG Export Plug-In . SVG Version: 6.00 Build 0)  -->
<svg version="1.1" id="Layer_1" xmlns="http://www.w3.org/2000/svg" xmlns:xlink="http://www.w3.org/1999/xlink" x="0px" y="0px"
	 viewBox="0 0 800 707" style="enable-background:new 0 0 800 707;" xml:space="preserve">
<g>
	<path d="M176.5,190.3H61.2c-15.5,0-28.1-12.6-28.1-28.1s12.6-28.1,28.1-28.1h115.2c15.5,0,28.1,12.6,28.1,28.1
		S191.9,190.3,176.5,190.3z M61.2,146.2c-8.9,0-16.1,7.2-16.1,16.1s7.2,16.1,16.1,16.1h115.2c8.9,0,16.1-7.2,16.1-16.1
		s-7.2-16.1-16.1-16.1H61.2z"/>
	<path id="XMLID_56_" d="M45.4,159.5l-11.8-2.1L51,60.1c2.1-11.9,12.5-20.6,24.6-20.6h86.2c12.1,0,22.5,8.6,24.7,20.6l17.7,96.5
		l-11.8,2.2l-17.7-96.5c-1.1-6.2-6.5-10.7-12.8-10.7H75.5c-6.3,0-11.6,4.5-12.8,10.7L45.4,159.5z"/>
	<circle id="XMLID_55_" cx="173" cy="164.3" r="7.1"/>
</g>
<g>
	<path d="M746.8,427H622.6c-11.3,0-20.4-9.2-20.4-20.4V300c0-11.3,9.2-20.4,20.4-20.4h27.5c11.1,0,20.2,9,20.4,20h76.4
		c11.3,0,20.4,9.2,20.4,20.4v86.6C767.3,417.8,758.1,427,746.8,427z M622.6,291.6c-4.6,0-8.4,3.8-8.4,8.4v106.6
		c0,4.6,3.8,8.4,8.4,8.4h124.3c4.6,0,8.4-3.8,8.4-8.4V320c0-4.6-3.8-8.4-8.4-8.4h-88.4V300c0-4.6-3.8-8.4-8.4-8.4H622.6z"/>
	<g>
		<path id="XMLID_52_" d="M715.8,357.1c-0.8,0-1.5-0.3-2.1-0.9c-1.2-1.2-1.2-3.1,0-4.2l23.8-23.8c1.2-1.2,3.1-1.2,4.2,0
			s1.2,3.1,0,4.2l-23.8,23.8C717.3,356.8,716.6,357.1,715.8,357.1z"/>
		<g>
			<polygon id="XMLID_51_" points="742.4,356.9 737.3,356.7 738.2,331.6 713.1,332.5 712.9,327.4 743.5,326.3 			"/>
		</g>
	</g>
	<g>
		<path id="XMLID_50_" d="M651.8,373.1c0.8,0,1.5,0.3,2.1,0.9c1.2,1.2,1.2,3.1,0,4.2L630,402.1c-1.2,1.2-3.1,1.2-4.2,0
			s-1.2-3.1,0-4.2l23.8-23.8C650.2,373.4,651,373.1,651.8,373.1z"/>
		<g>
			<polygon id="XMLID_49_" points="625.1,373.2 630.2,373.4 629.3,398.5 654.4,397.6 654.6,402.7 624,403.8 			"/>
		</g>
	</g>
</g>
<g>
	<path d="M402.6,434.6c-44.8,0-81.3-36.5-81.3-81.3s36.5-81.3,81.3-81.3s81.3,36.5,81.3,81.3S447.4,434.6,402.6,434.6z M402.6,284
		c-38.2,0-69.3,31.1-69.3,69.3s31.1,69.3,69.3,69.3c38.2,0,69.3-31.1,69.3-69.3S440.8,284,402.6,284z"/>
	<path id="XMLID_46_" d="M442.9,356.3h-43.3v-50.5c0-1.7,1.3-3,3-3s3,1.3,3,3v44.5h37.3c1.7,0,3,1.3,3,3S444.5,356.3,442.9,356.3z"
		/>
</g>
<g>
	<path id="cloud-icon_13_" d="M198.7,545.9c-1.4-17.5-24.4-23.2-33.8-8.3c-6.1-3.5-13.9,0.6-14.4,7.7c-6.7,0.8-11.9,6.5-11.9,13.4
		c0,7.5,6.1,13.5,13.5,13.5h42.4c7.5,0,13.5-6.1,13.5-13.5C208.1,552.8,204.2,547.7,198.7,545.9z"/>
	<g>
		<path id="XMLID_45_" d="M180.7,584.4v61.1c0,4.6-3.8,8.4-8.4,8.4H48c-4.6,0-8.4-3.8-8.4-8.4V538.8c0-4.6,3.8-8.4,8.4-8.4h27.5
			c4.6,0,8.4,3.8,8.4,8.4v11.6h44.2c1.7-4.8,4.7-9,8.8-12h-41c-0.2-11.1-9.3-20-20.4-20H48c-11.3,0-20.4,9.2-20.4,20.4v106.6
			c0,11.3,9.2,20.4,20.4,20.4h124.3c11.3,0,20.4-9.2,20.4-20.4v-61.1H180.7z"/>
		<path id="XMLID_44_" d="M192.7,572.4v-13.5c0-11.3-9.2-20.4-20.4-20.4h-18c-2.1,1.6-3.5,4-3.7,6.9c-3.6,0.4-6.8,2.3-8.9,5.1h30.7
			c4.6,0,8.4,3.8,8.4,8.4v13.5H192.7z"/>
	</g>
</g>
<g>
	<path d="M181,427.3H56.7c-11.3,0-20.4-9.2-20.4-20.4V300.2c0-11.3,9.2-20.4,20.4-20.4h27.5c11.1,0,20.2,9,20.4,20H181
		c11.3,0,20.4,9.2,20.4,20.4v86.6C201.4,418.1,192.2,427.3,181,427.3z M56.7,291.8c-4.6,0-8.4,3.8-8.4,8.4v106.6
		c0,4.6,3.8,8.4,8.4,8.4H181c4.6,0,8.4-3.8,8.4-8.4v-86.6c0-4.6-3.8-8.4-8.4-8.4H92.6v-11.6c0-4.6-3.8-8.4-8.4-8.4H56.7z"/>
	<g>
		<polygon id="XMLID_41_" points="72.7,390.8 68.4,386.6 108.1,346.9 131,369.8 161.1,339.6 165.4,343.8 131,378.2 108.1,355.4 		
			"/>
		<g>
			<polygon id="XMLID_40_" points="166.1,368.4 161,368.2 161.9,343.1 136.7,344 136.6,338.9 167.2,337.8 			"/>
		</g>
	</g>
</g>
<g>
	<polygon id="XMLID_39_" points="760.9,537.8 760.9,526.9 752.7,526.9 752.7,529.6 743.7,520.6 713.4,550.8 719.7,550.8 
		719.7,575.1 737.1,575.1 737.1,561.9 750.2,561.9 750.2,575.1 767.6,575.1 767.6,550.8 773.9,550.8 	"/>
	<g>
		<path id="XMLID_38_" d="M758.7,575.1v-15.5c0-11.3-9.2-20.4-20.4-20.4H725l-11.5,11.5h6.2v0.5h18.6c4.6,0,8.4,3.8,8.4,8.4v2.3h3.6
			v13.2H758.7z"/>
		<path id="XMLID_37_" d="M750.2,587.1h-1.1h-2.4v59.1c0,4.6-3.8,8.4-8.4,8.4H614c-4.6,0-8.4-3.8-8.4-8.4V539.6
			c0-4.6,3.8-8.4,8.4-8.4h27.5c4.6,0,8.4,3.8,8.4,8.4v11.6H696l9-9l3-3h-46.1c-0.2-11.1-9.3-20-20.4-20H614
			c-11.3,0-20.4,9.2-20.4,20.4v106.6c0,11.3,9.2,20.4,20.4,20.4h124.3c11.3,0,20.4-9.2,20.4-20.4v-59.1H750.2z"/>
	</g>
</g>
<g>
	<path id="XMLID_36_" d="M746.8,188.6H622.6c-11.3,0-20.4-9.2-20.4-20.4V61.6c0-11.3,9.2-20.4,20.4-20.4h27.5c11.1,0,20.2,9,20.4,20
		h76.4c11.3,0,20.4,9.2,20.4,20.4v12.8h-12V81.6c0-4.6-3.8-8.4-8.4-8.4h-88.4V61.6c0-4.6-3.8-8.4-8.4-8.4h-27.5
		c-4.6,0-8.4,3.8-8.4,8.4v106.6c0,4.6,3.8,8.4,8.4,8.4h124.3c4.6,0,8.4-3.8,8.4-8.4v-13.1h12v13.1
		C767.3,179.5,758.1,188.6,746.8,188.6z"/>
	<g>
		<path id="XMLID_35_" d="M763.6,129.1h-54.7c-1.7,0-3-1.3-3-3s1.3-3,3-3h54.7c1.7,0,3,1.3,3,3S765.2,129.1,763.6,129.1z"/>
		<g>
			<polygon id="XMLID_34_" points="725.8,105.3 729.2,109 710.8,126.1 729.2,143.2 725.8,147 703.3,126.1 			"/>
		</g>
	</g>
</g>
<g>
	<g>
		<polygon id="XMLID_33_" points="463.2,42.5 472,60.3 491.6,63.2 477.4,77 480.7,96.5 463.2,87.3 445.6,96.5 449,77 434.8,63.2 
			454.4,60.3 		"/>
		<path d="M463.2,42.5l8.8,17.8l19.6,2.9L477.4,77l3.4,19.5l-17.5-9.2l-17.5,9.2L449,77l-14.2-13.8l19.6-2.9L463.2,42.5"/>
	</g>
	<path id="XMLID_31_" d="M475.1,107.1l-5.3-2.8v63.8c0,4.6-3.8,8.4-8.4,8.4H337.2c-4.6,0-8.4-3.8-8.4-8.4V61.6
		c0-4.6,3.8-8.4,8.4-8.4h27.5c4.6,0,8.4,3.8,8.4,8.4v11.6H428l-1.5-1.5l-10.8-10.5h-30.5c-0.2-11.1-9.3-20-20.4-20h-27.5
		c-11.3,0-20.4,9.2-20.4,20.4v106.6c0,11.3,9.2,20.4,20.4,20.4h124.3c11.3,0,20.4-9.2,20.4-20.4v-57.5L475.1,107.1z"/>
</g>
<g>
	<path id="XMLID_30_" d="M476.8,528.9h-30.8c-0.4-4.6-4.2-8.2-8.9-8.2h-11.3c-4.9,0-8.9,4-8.9,8.9V548h6v-18.4
		c0-1.6,1.3-2.9,2.9-2.9H437c1.6,0,2.9,1.3,2.9,2.9v5.3h36.8c1.6,0,2.9,1.3,2.9,2.9v35.5c0,1.6-1.3,2.9-2.9,2.9h-10.6v6h10.6
		c4.9,0,8.9-4,8.9-8.9v-35.5C485.7,532.9,481.7,528.9,476.8,528.9z"/>
	<path d="M430.1,664.6h-94.7c-9.4,0-17-7.6-17-17v-81.2c0-9.4,7.6-17,17-17h20.9c8.8,0,16,6.7,16.9,15.3h56.8c9.4,0,17,7.6,17,17v66
		C447.1,657,439.5,664.6,430.1,664.6z M335.4,561.5c-2.7,0-5,2.2-5,5v81.2c0,2.7,2.2,5,5,5h94.7c2.7,0,5-2.2,5-5v-66
		c0-2.7-2.2-5-5-5h-68.8v-10.3c0-2.7-2.2-5-5-5H335.4z"/>
	<path id="XMLID_27_" d="M458,545h-43.4v-0.2c0-6.1-5-11.1-11.1-11.1H388c-6.1,0-11.1,5-11.1,11.1v19.8h6v-19.8
		c0-2.8,2.3-5.1,5.1-5.1h15.5c2.8,0,5.1,2.3,5.1,5.1v6.2H458c2.8,0,5.1,2.3,5.1,5.1v48.8c0,2.8-2.3,5.1-5.1,5.1h-11.4v6H458
		c6.1,0,11.1-5,11.1-11.1v-48.8C469.1,550,464.1,545,458,545z"/>
</g>
</svg>
