<?xml version="1.0" encoding="utf-8"?>
<!-- Generator: Adobe Illustrator 19.0.0, SVG Export Plug-In . SVG Version: 6.00 Build 0)  -->
<svg version="1.1" id="Layer_1" xmlns="http://www.w3.org/2000/svg" xmlns:xlink="http://www.w3.org/1999/xlink" x="0px" y="0px"
	 viewBox="0 0 200 200" style="enable-background:new 0 0 200 200;" xml:space="preserve">
<g>
	<path id="cloud-icon_13_" d="M180.9,53.8c-1.4-17.5-24.4-23.2-33.8-8.3c-6.1-3.5-13.9,0.6-14.4,7.7c-6.7,0.8-11.9,6.5-11.9,13.4
		c0,7.5,6.1,13.5,13.5,13.5h42.4c7.5,0,13.5-6.1,13.5-13.5C190.3,60.7,186.3,55.5,180.9,53.8z"/>
	<g>
		<path id="XMLID_45_" d="M162.8,92.2v61.1c0,4.6-3.8,8.4-8.4,8.4H30.1c-4.6,0-8.4-3.8-8.4-8.4V46.7c0-4.6,3.8-8.4,8.4-8.4h27.5
			c4.6,0,8.4,3.8,8.4,8.4v11.6h44.2c1.7-4.8,4.7-9,8.8-12H78c-0.2-11.1-9.3-20-20.4-20H30.1c-11.3,0-20.4,9.2-20.4,20.4v106.6
			c0,11.3,9.2,20.4,20.4,20.4h124.3c11.3,0,20.4-9.2,20.4-20.4V92.2H162.8z"/>
		<path id="XMLID_44_" d="M174.8,80.2V66.7c0-11.3-9.2-20.4-20.4-20.4h-18c-2.1,1.6-3.5,4-3.7,6.9c-3.6,0.4-6.8,2.3-8.9,5.1h30.7
			c4.6,0,8.4,3.8,8.4,8.4v13.5H174.8z"/>
	</g>
</g>
</svg>
