<?xml version="1.0" encoding="UTF-8" standalone="no"?>
<svg width="36px" height="28px" viewBox="0 0 36 28" version="1.1" xmlns="http://www.w3.org/2000/svg" xmlns:xlink="http://www.w3.org/1999/xlink" xmlns:sketch="http://www.bohemiancoding.com/sketch/ns">
  <!-- Generator: Sketch 3.1.1 (8761) - http://www.bohemiancoding.com/sketch -->
  <title>folder</title>
  <desc>Created for Kazoup</desc>
  <defs>
    <linearGradient x1="50.0001379%" y1="100.000141%" x2="50.0001379%" y2="0.000211321924%" id="linearGradient-1">
      <stop stop-color="#E6E6E6" offset="0%"></stop>
      <stop stop-color="#E8E8E8" offset="63.31%"></stop>
      <stop stop-color="#F0F0F0" offset="94.87%"></stop>
      <stop stop-color="#F2F2F2" offset="100%"></stop>
    </linearGradient>
    <linearGradient x1="50.0001335%" y1="100.000148%" x2="50.0001335%" y2="0.00022146187%" id="linearGradient-2">
      <stop stop-color="#CCCCCC" offset="0%"></stop>
      <stop stop-color="#CECECE" offset="42.72%"></stop>
      <stop stop-color="#D6D6D6" offset="64.03%"></stop>
      <stop stop-color="#E3E3E3" offset="80.61%"></stop>
      <stop stop-color="#F6F6F6" offset="94.66%"></stop>
      <stop stop-color="#FFFFFF" offset="100%"></stop>
    </linearGradient>
  </defs>
  <g id="Page-1" stroke="none" stroke-width="1" fill="none" fill-rule="evenodd" sketch:type="MSPage">
    <g id="folder" sketch:type="MSLayerGroup">
      <path d="M17.5298571,2.12515692 L17.5298571,0.861538462 C17.5298571,0.387692308 17.1441429,0 16.6727143,0 L3.8442,0 C3.37277143,0 2.98705714,0.387692308 2.98705714,0.861538462 L2.98705714,2.12515692 L1.63045714,2.12515692 C1.33191429,2.12515692 0.8238,2.51284923 0.815657143,2.98660923 L0.873171429,27.1380308 C0.865028571,27.6117046 1.24414286,28.0000862 1.71557143,28.0004308 L34.4663143,28.0004308 C34.9377429,28.0009477 35.3185714,27.6145477 35.3127429,27.1408738 L35.184,2.98660923 C35.1781714,2.51276308 34.7877429,2.12515692 34.3163143,2.12515692 L17.5298571,2.12515692 L17.5298571,2.12515692 Z" id="Shape" fill="#1EB3DA" sketch:type="MSShapeGroup"></path>
      <path d="M33.4494857,27.6287631 L2.55025714,27.6287631 L2.46454286,3.16736 L33.5352,3.16736 L33.4494857,27.6287631 Z" id="Shape" fill="url(#linearGradient-1)" sketch:type="MSShapeGroup"></path>
      <path d="M33.4494857,27.6287631 L2.55025714,27.6287631 L1.95025714,4.28736 L34.0494857,4.28736 L33.4494857,27.6287631 Z" id="Shape" fill="url(#linearGradient-2)" sketch:type="MSShapeGroup"></path>
      <path d="M35.2721143,27.1407877 C35.2638857,27.6146338 34.8716571,28.0014646 34.4002286,28.0003446 L1.6494,28.0003446 C1.17797143,27.9991385 0.735514286,27.55424 0.727371429,27.0805662 L-6.76596366e-16,6.37521231 C-0.00814285714,5.90145231 0.370885714,5.51384615 0.842314286,5.51384615 L35.1574286,5.51384615 C35.6288571,5.51384615 36.0078857,5.90153846 35.9996571,6.37529846 L35.2721143,27.1407877 L35.2721143,27.1407877 Z" id="Shape" fill="#1EB3DA" sketch:type="MSShapeGroup"></path>
    </g>
  </g>
</svg>
