<?xml version="1.0" encoding="utf-8"?>
<!-- Generator: Adobe Illustrator 19.0.0, SVG Export Plug-In . SVG Version: 6.00 Build 0)  -->
<svg version="1.1" id="Layer_1" xmlns="http://www.w3.org/2000/svg" xmlns:xlink="http://www.w3.org/1999/xlink" x="0px" y="0px"
	 viewBox="0 0 200 200" style="enable-background:new 0 0 200 200;" xml:space="preserve">
<g>
	<polygon id="XMLID_39_" points="177.2,44.9 177.2,34 168.9,34 168.9,36.7 159.9,27.7 129.7,57.9 136,57.9 136,82.2 153.4,82.2 
		153.4,69 166.5,69 166.5,82.2 183.9,82.2 183.9,57.9 190.2,57.9 	"/>
	<g>
		<path id="XMLID_38_" d="M174.9,82.2V66.7c0-11.3-9.2-20.4-20.4-20.4h-13.3l-11.5,11.5h6.2v0.5h18.6c4.6,0,8.4,3.8,8.4,8.4V69h3.6
			v13.2H174.9z"/>
		<path id="XMLID_37_" d="M166.5,94.2h-1.1h-2.4v59.1c0,4.6-3.8,8.4-8.4,8.4H30.3c-4.6,0-8.4-3.8-8.4-8.4V46.7
			c0-4.6,3.8-8.4,8.4-8.4h27.5c4.6,0,8.4,3.8,8.4,8.4v11.6h46.1l9-9l3-3H78.2c-0.2-11.1-9.3-20-20.4-20H30.3
			C19,26.3,9.8,35.4,9.8,46.7v106.6c0,11.3,9.2,20.4,20.4,20.4h124.3c11.3,0,20.4-9.2,20.4-20.4V94.2H166.5z"/>
	</g>
</g>
</svg>
