<?xml version="1.0" encoding="utf-8"?>
<!-- Generator: Adobe Illustrator 19.0.0, SVG Export Plug-In . SVG Version: 6.00 Build 0)  -->
<svg version="1.1" id="Layer_1" xmlns="http://www.w3.org/2000/svg" xmlns:xlink="http://www.w3.org/1999/xlink" x="0px" y="0px"
	 viewBox="0 0 200 200" style="enable-background:new 0 0 200 200;" xml:space="preserve">
<g>
	<path d="M162.1,173.7H37.9c-11.3,0-20.4-9.2-20.4-20.4V46.7c0-11.3,9.2-20.4,20.4-20.4h27.5c11.1,0,20.2,9,20.4,20h76.4
		c11.3,0,20.4,9.2,20.4,20.4v86.6C182.5,164.6,173.4,173.7,162.1,173.7z M37.9,38.3c-4.6,0-8.4,3.8-8.4,8.4v106.6
		c0,4.6,3.8,8.4,8.4,8.4h124.3c4.6,0,8.4-3.8,8.4-8.4V66.7c0-4.6-3.8-8.4-8.4-8.4H73.8V46.7c0-4.6-3.8-8.4-8.4-8.4H37.9z"/>
	<g>
		<polygon id="XMLID_41_" points="53.8,137.3 49.6,133 89.2,93.3 112.1,116.2 142.3,86 146.5,90.3 112.1,124.7 89.2,101.8 		"/>
		<g>
			<polygon id="XMLID_44_" points="147.2,114.9 142.1,114.7 143,89.5 117.9,90.5 117.7,85.4 148.3,84.3 			"/>
		</g>
	</g>
</g>
</svg>
