<?xml version="1.0" encoding="utf-8"?>
<!-- Generator: Adobe Illustrator 19.0.0, SVG Export Plug-In . SVG Version: 6.00 Build 0)  -->
<svg version="1.1" id="Layer_1" xmlns="http://www.w3.org/2000/svg" xmlns:xlink="http://www.w3.org/1999/xlink" x="0px" y="0px"
	 viewBox="-539 301 200 200" style="enable-background:new -539 301 200 200;" xml:space="preserve">
<g>
	<path d="M-343.1,440l-20.2-19.4c4.3-5.9,6.9-13.2,6.9-21.1c0-19.8-16.1-35.8-35.8-35.8c-19.8,0-35.8,16.1-35.8,35.8
		c0,19.8,16.1,35.8,35.8,35.8c8.4,0,16.1-2.9,22.2-7.8l20.2,19.4c0.9,0.9,2.1,1.3,3.3,1.3c1.3,0,2.5-0.5,3.5-1.5
		C-341.1,444.9-341.2,441.9-343.1,440z M-392.3,425.7c-14.4,0-26.2-11.7-26.2-26.2c0-14.4,11.7-26.2,26.2-26.2
		c14.4,0,26.2,11.7,26.2,26.2C-366.1,413.9-377.9,425.7-392.3,425.7z"/>
	<path d="M-430.2,424.6h-72.5c-13.8,0-25.1-11.2-25.1-25.1s11.2-25.1,25.1-25.1h72.5c2.1-3.2,4.6-6,7.4-8.6h-79.9
		c-18.6,0-33.6,15.1-33.6,33.6c0,18.6,15.1,33.6,33.6,33.6h79.9C-425.6,430.6-428.1,427.7-430.2,424.6z"/>
</g>
</svg>
