<?xml version="1.0" encoding="utf-8"?>
<!-- Generator: Adobe Illustrator 19.0.0, SVG Export Plug-In . SVG Version: 6.00 Build 0)  -->
<svg version="1.1" id="Layer_1" xmlns="http://www.w3.org/2000/svg" xmlns:xlink="http://www.w3.org/1999/xlink" x="0px" y="0px"
	 viewBox="0 0 200 200" style="enable-background:new 0 0 200 200;" xml:space="preserve">
<g>
	<g>
		<polygon id="XMLID_33_" points="159,27.6 167.8,45.4 187.4,48.2 173.2,62.1 176.6,81.6 159,72.4 141.5,81.6 144.8,62.1 
			130.6,48.2 150.2,45.4 		"/>
		<path d="M159,27.6l8.8,17.8l19.6,2.9l-14.2,13.8l3.4,19.5L159,72.4l-17.5,9.2l3.4-19.5l-14.2-13.8l19.6-2.9L159,27.6"/>
	</g>
	<path id="XMLID_31_" d="M171,92.2l-5.3-2.8v63.8c0,4.6-3.8,8.4-8.4,8.4H33c-4.6,0-8.4-3.8-8.4-8.4V46.7c0-4.6,3.8-8.4,8.4-8.4h27.5
		c4.6,0,8.4,3.8,8.4,8.4v11.6h54.9l-1.5-1.5l-10.8-10.5H80.9c-0.2-11.1-9.3-20-20.4-20H33c-11.3,0-20.4,9.2-20.4,20.4v106.6
		c0,11.3,9.2,20.4,20.4,20.4h124.3c11.3,0,20.4-9.2,20.4-20.4V95.8L171,92.2z"/>
</g>
</svg>
