<?xml version="1.0" encoding="utf-8"?>
<!-- Generator: Adobe Illustrator 19.0.0, SVG Export Plug-In . SVG Version: 6.00 Build 0)  -->
<svg version="1.1" id="Layer_1" xmlns="http://www.w3.org/2000/svg" xmlns:xlink="http://www.w3.org/1999/xlink" x="0px" y="0px"
	 viewBox="0 0 200 200" style="enable-background:new 0 0 200 200;" xml:space="preserve">
<g>
	<path d="M162.1,173.7H37.9c-11.3,0-20.4-9.2-20.4-20.4V46.7c0-11.3,9.2-20.4,20.4-20.4h27.5c11.1,0,20.2,9,20.4,20h76.4
		c11.3,0,20.4,9.2,20.4,20.4v86.6C182.5,164.6,173.4,173.7,162.1,173.7z M37.9,38.3c-4.6,0-8.4,3.8-8.4,8.4v106.6
		c0,4.6,3.8,8.4,8.4,8.4h124.3c4.6,0,8.4-3.8,8.4-8.4V66.7c0-4.6-3.8-8.4-8.4-8.4H73.8V46.7c0-4.6-3.8-8.4-8.4-8.4H37.9z"/>
	<g>
		<path id="XMLID_52_" d="M131.1,103.8c-0.8,0-1.5-0.3-2.1-0.9c-1.2-1.2-1.2-3.1,0-4.2l23.8-23.8c1.2-1.2,3.1-1.2,4.2,0
			s1.2,3.1,0,4.2l-23.8,23.8C132.6,103.5,131.9,103.8,131.1,103.8z"/>
		<g>
			<polygon id="XMLID_55_" points="157.7,103.6 152.6,103.4 153.5,78.3 128.4,79.2 128.2,74.1 158.8,73 			"/>
		</g>
	</g>
	<g>
		<path id="XMLID_50_" d="M67,119.8c0.8,0,1.5,0.3,2.1,0.9c1.2,1.2,1.2,3.1,0,4.2l-23.8,23.8c-1.2,1.2-3.1,1.2-4.2,0s-1.2-3.1,0-4.2
			l23.8-23.8C65.5,120.1,66.3,119.8,67,119.8z"/>
		<g>
			<polygon id="XMLID_51_" points="40.4,120 45.5,120.1 44.6,145.3 69.7,144.3 69.9,149.4 39.3,150.6 			"/>
		</g>
	</g>
</g>
</svg>
